<?xml version="1.0" encoding="UTF-8" standalone="no"?>
<!-- Created with Inkscape (http://www.inkscape.org/) -->

<svg
   width="210mm"
   height="297mm"
   viewBox="0 0 210 297"
   version="1.1"
   id="svg5"
   xml:space="preserve"
   inkscape:version="1.2.2 (b0a8486541, 2022-12-01)"
   sodipodi:docname="favicon.svg"
   xmlns:inkscape="http://www.inkscape.org/namespaces/inkscape"
   xmlns:sodipodi="http://sodipodi.sourceforge.net/DTD/sodipodi-0.dtd"
   xmlns="http://www.w3.org/2000/svg"
   xmlns:svg="http://www.w3.org/2000/svg"><sodipodi:namedview
     id="namedview7"
     pagecolor="#ffffff"
     bordercolor="#666666"
     borderopacity="1.0"
     inkscape:showpageshadow="2"
     inkscape:pageopacity="0.0"
     inkscape:pagecheckerboard="0"
     inkscape:deskcolor="#d1d1d1"
     inkscape:document-units="mm"
     showgrid="false"
     inkscape:zoom="0.37460368"
     inkscape:cx="-256.27084"
     inkscape:cy="623.32544"
     inkscape:window-width="1920"
     inkscape:window-height="1022"
     inkscape:window-x="0"
     inkscape:window-y="0"
     inkscape:window-maximized="1"
     inkscape:current-layer="layer1" /><defs
     id="defs2" /><g
     inkscape:label="Layer 1"
     inkscape:groupmode="layer"
     id="layer1"><path
       style="fill:#000000;stroke-width:0.213658"
       d="m 122.21614,83.23829 c 1.19475,-0.78282 1.18994,-0.73449 1.16669,-11.74027 -0.0278,-13.20194 0.70715,-11.91363 -6.85424,-12.0135 -7.30522,-0.0965 -6.61642,-1.3336 -6.61541,11.88152 6.1e-4,11.43355 0.005,11.46953 1.33591,12.00465 0.9418,0.37864 10.36065,0.26494 10.96705,-0.1324 z m 24.78723,-0.37422 c 0.83333,-0.83333 0.77538,-0.26138 0.73817,-7.28573 -0.0235,-4.43633 -0.22531,-6.7618 -0.65583,-7.55673 -0.10384,-0.19173 -0.497,-1.02162 -0.87367,-1.84421 -2.25146,-4.91669 -6.08065,-6.73021 -14.21065,-6.73021 -6.66895,0 -6.35122,-0.39605 -6.19049,7.71654 0.18978,9.57896 2.49474,14.01934 8.32294,16.03369 2.3184,0.80128 11.98528,0.5509 12.86953,-0.33335 z M 122.85761,56.17702 c 0.90729,-1.05567 0.7882,-10.36998 -0.14325,-11.20346 -1.47734,-1.32197 -10.66914,-1.38355 -11.97248,-0.0802 -0.96215,0.96216 -0.92164,0.65646 -0.83885,6.32804 0.0895,6.13332 -0.31556,5.80384 6.96145,5.66193 5.47792,-0.10684 5.47792,-0.10684 5.99313,-0.70631 z m 24.35941,-0.0201 c 0.72643,-0.72644 0.72643,-0.72644 0.72643,-5.55174 0,-7.01588 0.91457,-6.50948 -11.79068,-6.52856 -11.16277,-0.0168 -10.47093,-0.39498 -10.40317,5.68726 0.0887,7.95778 -1.20516,7.11947 10.98799,7.11947 9.75299,0 9.75299,0 10.47943,-0.72643 z"
       id="path1856"
       sodipodi:nodetypes="scscssssscssssssssssssscss" /><path
       d="m 95.604568,85.597879 c 6.914822,-1.94033 9.714072,-6.156105 9.982082,-15.033425 0.18177,-6.02078 0.17805,-6.02564 -4.65743,-6.08679 -8.826098,-0.11159 -8.566219,-0.24241 -8.727919,4.39333 -0.165114,4.7336 0.454283,4.46416 -10.125702,4.40488 -4.478116,-0.0251 -8.302908,-0.0347 -8.499537,-0.0212 -2.381967,0.16269 -2.586735,11.773155 -0.221963,12.585375 1.180808,0.40557 20.699168,0.19311 22.250469,-0.24218 z M 84.752123,65.625194 c 0.76229,-0.85361 0.9416,-8.13876 0.201135,-8.17178 -0.247221,-0.011 -0.223147,-0.0651 0.09051,-0.20329 0.235023,-0.10355 4.623848,-0.18428 9.75294,-0.17941 11.865432,0.0113 10.705362,0.6582 10.824272,-6.03614 0.13033,-7.3378 2.1067,-6.56303 -16.881332,-6.61775 -16.621914,-0.0479 -15.992952,-0.0889 -16.620991,1.08458 -0.679283,1.26924 -0.134951,19.66999 0.601337,20.3277 1.158673,1.03503 11.07581,0.86696 12.032127,-0.20391 z"
       style="fill:#000000;stroke-width:0.213658"
       id="path2241"
       inkscape:export-filename="../v1/favicon.png"
       inkscape:export-xdpi="139.81"
       inkscape:export-ydpi="139.81" /><path
       style="fill:#000000;stroke-width:0.213658"
       d="m 84.439251,191.27995 c 1.19475,-0.78282 1.18994,-0.73449 1.16669,-11.74027 -0.0278,-13.20194 0.70715,-11.91363 -6.85424,-12.0135 -7.30522,-0.0965 -6.61642,-1.3336 -6.61541,11.88152 6.1e-4,11.43355 0.005,11.46953 1.33591,12.00465 0.9418,0.37864 10.36065,0.26494 10.96705,-0.1324 z m 24.787229,-0.37422 c 0.83333,-0.83333 0.77538,-0.26138 0.73817,-7.28573 -0.0235,-4.43633 -0.22531,-6.7618 -0.65583,-7.55673 -0.10384,-0.19173 -0.497,-1.02162 -0.87367,-1.84421 -2.25146,-4.91669 -6.08065,-6.73021 -14.210649,-6.73021 -6.66895,0 -6.35122,-0.39605 -6.19049,7.71654 0.18978,9.57896 2.49474,14.01934 8.32294,16.03369 2.3184,0.80128 11.985279,0.5509 12.869529,-0.33335 z M 85.080721,164.21868 c 0.90729,-1.05567 0.7882,-10.36998 -0.14325,-11.20346 -1.47734,-1.32197 -10.66914,-1.38355 -11.97248,-0.0802 -0.96215,0.96216 -0.92164,0.65646 -0.83885,6.32804 0.0895,6.13332 -0.31556,5.80384 6.96145,5.66193 5.47792,-0.10684 5.47792,-0.10684 5.99313,-0.70631 z m 24.359409,-0.0201 c 0.72643,-0.72644 0.72643,-0.72644 0.72643,-5.55174 0,-7.01588 0.91457,-6.50948 -11.790679,-6.52856 -11.16277,-0.0168 -10.47093,-0.39498 -10.40317,5.68726 0.0887,7.95778 -1.20516,7.11947 10.98799,7.11947 9.752989,0 9.752989,0 10.479429,-0.72643 z"
       id="path1856-1"
       sodipodi:nodetypes="scscssssscssssssssssssscss"
       inkscape:export-filename="../v1/logo.png"
       inkscape:export-xdpi="139.81"
       inkscape:export-ydpi="139.81" /><path
       d="m 95.967991,142.78579 c 6.914819,-1.94033 9.714069,-6.15611 9.982079,-15.03343 0.18177,-6.02078 0.17805,-6.02564 -4.65743,-6.08679 -8.826099,-0.11159 -8.566219,-0.24241 -8.727919,4.39333 -0.16511,4.7336 0.45428,4.46416 -10.1257,4.40488 -4.47812,-0.0251 -8.30291,-0.0347 -8.49954,-0.0212 -2.38197,0.16269 -2.58673,11.77316 -0.22196,12.58538 1.18081,0.40557 20.69917,0.19311 22.25047,-0.24218 z M 85.115541,122.8131 c 0.76229,-0.85361 0.9416,-8.13876 0.20114,-8.17178 -0.24722,-0.011 -0.22315,-0.0651 0.0905,-0.20329 0.23502,-0.10355 4.62385,-0.18428 9.75294,-0.17941 11.865429,0.0113 10.705359,0.6582 10.824269,-6.03614 0.13033,-7.3378 2.1067,-6.56303 -16.881329,-6.61775 -16.62192,-0.0479 -15.99295,-0.0889 -16.62099,1.08458 -0.67929,1.26924 -0.13495,19.66999 0.60133,20.3277 1.15868,1.03503 11.07581,0.86696 12.03213,-0.20391 z"
       style="fill:#000000;stroke-width:0.213658"
       id="path2241-2"
       inkscape:export-filename="../v1/favicon.png"
       inkscape:export-xdpi="139.81"
       inkscape:export-ydpi="139.81" /><path
       d="m -33.900199,2.3798112 c 0.34093,0.36497 0.62447,0.82165 0.63009,1.01487 0.65027,22.3561198 0.61794,22.4648798 -6.68022,22.4648798 -7.535689,0 -6.790439,1.29585 -6.790439,-11.80713 0,-13.59592981 -0.70729,-12.3335998 6.911569,-12.3351198 5.30914,-0.002 5.30914,-0.002 5.929,0.6625 z m 19.48321,-0.43171 c 1.16834,0.53234 1.16811,0.53029 1.3349,11.7437598 0.20089,13.50564 0.93578,12.15675 -6.63345,12.17564 -7.46507,0.0186 -6.7614,1.33354 -6.68038,-12.48334 0.0657,-11.2033698 0.0506,-11.0849098 1.4675,-11.4812898 0.88691,-0.24811 9.95325,-0.20908 10.51143,0.0452 z m 0.8188,26.9505298 c 1.49174,2.78735 -3.00753,9.60658 -7.50365,11.37278 -3.30496,1.29827 -23.54577,1.50636 -24.87186,0.2557 -1.129649,-1.06539 -1.212279,-10.08614 -0.10396,-11.34845 0.85805,-0.97726 31.9628,-1.24544 32.47947,-0.28003 z"
       style="fill:#000000;stroke-width:0.213658"
       id="path2274-6" /><path
       d="m -35.640572,91.600051 c 1.381631,-0.31503 1.327061,0.53479 1.327931,-20.67825 0.002,-23.32059 0.89577,-20.53552 -6.658737,-20.72561 -7.632269,-0.19204 -6.855209,-2.55147 -6.813449,20.68781 0.0384,21.34112 -0.0377,20.23953 1.429559,20.72322 0.6502,0.21435 9.76991,0.20824 10.714696,-0.007 z m 24.580861,-0.37642 c 1.0700805,-0.99914 1.0749505,-1.04097 1.1758205,-10.10531 0.13108,-11.77817 0.845,-10.73738 -7.4092705,-10.80153 -7.41755,-0.0576 -7.27292,-0.15356 -7.21486,4.78444 0.051,4.33763 0.22052,4.05481 -2.32534,3.87945 -2.56782,-0.17685 -3.47554,-0.0195 -4.18116,0.72489 -0.61522,0.64899 -1.19519,1.64723 -1.04455,1.79787 0.0545,0.0545 0.10301,1.95484 0.10776,4.22293 0.01,4.69411 0.16369,5.38049 1.31708,5.87604 1.3295,0.57123 18.92166,0.2308 19.57452,-0.37878 z m 0.66276,-28.88243 c 0.9163505,-0.91635 0.8507105,-10.45173 -0.0786,-11.42173 -1.08988,-1.13759 -19.88202,-1.00799 -20.83132,0.14367 -1.29608,1.57237 -0.65384,11.27305 0.77796,11.75067 1.51707,0.50606 19.57726,0.0821 20.13197,-0.47261 z"
       style="fill:#000000;stroke-width:0.213658"
       id="path2349" /><path
       d="m -34.108601,139.68148 c 1.11775,-0.68149 1.33894,-2.99137 0.85061,-8.88288 0.0142,-0.57881 -0.19881,-1.33031 0.0452,-1.92339 2.41033,-0.0196 0.25336,0.034 5.56674,0.33281 -0.41234,2.54505 -0.031,0.46559 -0.30555,5.53055 -0.29276,5.32382 -0.23396,5.36987 6.85629,5.36987 7.39591,0 6.70516,1.2657 6.70603,-12.28797 6e-4,-11.03435 0.006,-10.97143 -1.07867,-11.53265 -1.3944,-0.72107 -28.70653,-0.44311 -29.53908,0.30063 -1.13065,1.01003 -1.20673,21.66498 -0.0839,22.78777 0.92632,0.92632 9.56933,1.16559 10.98244,0.30401 z m 19.14139,-27.09167 c 0.90177,-1.30125 0.87779,-9.93868 -0.0304,-10.95514 -1.31905,-1.47627 -28.53891,-1.667799 -29.99564,-0.21106 -1.08097,1.08096 -1.23746,10.31776 -0.19362,11.42798 1.00414,1.06801 29.46902,0.82143 30.21967,-0.26178 z"
       style="fill:#000000;stroke-width:0.213658"
       id="path2382" /></g></svg>
